inDegrees=no
num_controls=7
num_derivatives=13
num_iterations=117
num_multipliers=7
num_parameters=0
num_slacks=7
num_states=26
objective=0.542780
objective_accelerations=0.065277
objective_balance=0.003397
objective_effort=0.048207
objective_height=0.416728
objective_ligament=0.009171
solver_duration=1270.551457
status=Solve_Succeeded
success=true
DataType=double
version=3
OpenSimVersion=4.5
endheader
time	/jointset/ground_pelvis/pelvis_tilt/value	/jointset/ground_pelvis/pelvis_tx/value	/jointset/ground_pelvis/pelvis_ty/value	/jointset/hip_r/hip_flexion_r/value	/jointset/hip_r/hip_adduction_r/value	/jointset/hip_r/hip_rotation_r/value	/jointset/back/lumbar_extension/value	/jointset/patellofemoral_r/patellar_flexion_r/value	/jointset/knee_r/knee_flexion_r/value	/jointset/knee_r/knee_adduction_r/value	/jointset/knee_r/knee_rotation_r/value	/jointset/ankle_r/ankle_angle_r/value	/jointset/subtalar_r/subtalar_angle_r/value	/jointset/ground_pelvis/pelvis_tilt/speed	/jointset/ground_pelvis/pelvis_tx/speed	/jointset/ground_pelvis/pelvis_ty/speed	/jointset/hip_r/hip_flexion_r/speed	/jointset/hip_r/hip_adduction_r/speed	/jointset/hip_r/hip_rotation_r/speed	/jointset/back/lumbar_extension/speed	/jointset/patellofemoral_r/patellar_flexion_r/speed	/jointset/knee_r/knee_flexion_r/speed	/jointset/knee_r/knee_adduction_r/speed	/jointset/knee_r/knee_rotation_r/speed	/jointset/ankle_r/ankle_angle_r/speed	/jointset/subtalar_r/subtalar_angle_r/speed	/forceset/tau_hip_flexion_r	/forceset/tau_hip_adduction_r	/forceset/tau_hip_rotation_r	/forceset/tau_knee_flexion_r	/forceset/tau_ankle_angle_r	/forceset/tau_subtalar_angle_r	/forceset/tau_lumbar_extension	lambda_cid13_p0	lambda_cid14_p0	lambda_cid14_p1	lambda_cid14_p2	lambda_cid14_p3	lambda_cid14_p4	lambda_cid14_p5	/jointset/ground_pelvis/pelvis_tilt/accel	/jointset/ground_pelvis/pelvis_tx/accel	/jointset/ground_pelvis/pelvis_ty/accel	/jointset/hip_r/hip_flexion_r/accel	/jointset/hip_r/hip_adduction_r/accel	/jointset/hip_r/hip_rotation_r/accel	/jointset/back/lumbar_extension/accel	/jointset/patellofemoral_r/patellar_flexion_r/accel	/jointset/knee_r/knee_flexion_r/accel	/jointset/knee_r/knee_adduction_r/accel	/jointset/knee_r/knee_rotation_r/accel	/jointset/ankle_r/ankle_angle_r/accel	/jointset/subtalar_r/subtalar_angle_r/accel	gamma_cid13_p0	gamma_cid14_p0	gamma_cid14_p1	gamma_cid14_p2	gamma_cid14_p3	gamma_cid14_p4	gamma_cid14_p5
0	-0.006330995134570151	0.09618368777335758	0.9427227688451323	0.1762555222360518	-0.2322024576452499	-0.2603053057622052	-0.038598046466844	0.07317863873451029	0.07317863873451017	0.1745305479895777	0.1732558107221998	0.03247278518263602	-0.003523517594539277	0	0	0	0	0	0	0	0	0	0	0	0	0	0.2289895835190288	-0.1514336109851262	-0.04169020532723793	-0.3912592092520365	0.3657713321901311	-0.1455860972995013	-0.1286999258294153	-39.03936643810744	67.54851225904743	-41.60480613793442	-4.096453926987744	-17.73860852302225	-675.234564912667	52.74887025188572	-2.775188191809705	-1.673665489156258	-0.7791160780154236	11.76551472630742	0.3227062753348244	2.849757447249326	-5.489893894519029	11.44250956404417	11.442509564045	-3.714307044947879	0.3558913276496038	3.473005990723224	1.119710329219716	1.421337818359064e-07	8.380359716272838e-08	-9.491300387271988e-07	3.156742977251987e-07	4.320932677691826e-08	8.141217855133758e-08	-4.823216784429783e-07
0.01	-0.006461503187417714	0.09610242147172314	0.9426853221806218	0.1768240947809125	-0.2321849697552332	-0.2601524616015004	-0.0388759211522467	0.07373454254394714	0.07373454254395041	0.1743452878919793	0.1732587590256158	0.03264355531241154	-0.003466892493796579	-0.026030554585428	-0.01604940747834915	-0.007473301840133861	0.1130837102382068	0.003422873484173487	0.03044284509964866	-0.05514758172669079	0.110683186622802	0.1106831866228022	-0.03674714610748795	0.0005724203296335108	0.03414324014253724	0.01124561694701717	0.2280381838291821	-0.1650843362793007	-0.04189054972228606	-0.3950475196985688	0.3715938940209738	-0.1346112743206921	-0.1270545709309341	-39.0580432325193	69.87713420250378	-36.51575249220458	-4.810658171066701	-21.19539738135396	-675.863939874984	63.00890490403398	-2.506323959942544	-1.539991808089375	-0.7290162952836825	10.98518683107974	0.3407764829551757	3.122726111879764	-5.463087008626767	10.80655849476558	10.8065584947652	-3.60930390029261	-0.09457844290499752	3.383389584708809	1.11496362339553	1.945508044367576e-07	8.785702275584309e-08	-1.297275753163069e-06	2.957426134520155e-07	9.320998353362863e-08	-1.920535936298766e-07	-5.633493180828045e-07
0.02	-0.006850183759727317	0.09586677840912211	0.9425736266860559	0.1785045819598561	-0.2321355134107753	-0.2596989533756884	-0.03969245099429272	0.07538234527629815	0.07538234527629828	0.1738016792319593	0.1732669323665947	0.03315543915535017	-0.003300215974393125	-0.05163450389218265	-0.03087535219332139	-0.01484976601111888	0.222382926816508	0.006393690888209801	0.06013281302158477	-0.1077310313286847	0.2183797845802983	0.2183797845802992	-0.07166971248071026	0.001045007518258886	0.06822274263266739	0.02201028373214676	0.2270867841393495	-0.1787350615734762	-0.04209089411743287	-0.3988358301450745	0.3774164558518214	-0.1236364513418814	-0.1254092160324447	-39.11308915223638	72.30884272993197	-31.43511727771509	-5.493282548722119	-24.83547498710806	-674.8799839352852	72.9738763240662	-2.689867136075013	-1.428972936480897	-0.7597485441856547	11.0086159943263	0.2322950593073846	2.699182011706814	-4.977067469579633	10.84519183098303	10.84519183098396	-3.349391098094741	0.3359246994479793	3.460258460241783	1.023520296842191	2.469678270376087e-07	9.191044834895781e-08	-1.64542146759894e-06	2.758109291788322e-07	1.43210640290339e-07	-4.655193658110909e-07	-6.443769577226306e-07
0.03	-0.007492814187948267	0.09548732882053018	0.9423882312868268	0.1812616218048747	-0.2320585247828853	-0.2589557020907398	-0.04102207241374265	0.07809340912310804	0.07809340912310994	0.1729180457084551	0.1732823999105962	0.03400599892828279	-0.003028551558288093	-0.07675776940365985	-0.04497434216136395	-0.02224228401702324	0.3285370908582132	0.008961384493921429	0.08834739166406017	-0.1578424226486957	0.3233481983394798	0.3233481983394842	-0.1047920691892546	0.002022313947092592	0.1016836671664859	0.0322352605236336	0.2192471549329046	-0.1858903750074266	-0.03987845530260362	-0.3891751809467561	0.3610424133569932	-0.1104202913121902	-0.1193357315365039	-39.20288048414159	67.63194495279625	-26.6159826766542	-6.145359683618891	-22.19262996949702	-673.7188246754837	81.31343058015737	-2.403458703968278	-1.394299678320498	-0.7310431649243891	10.34563974274122	0.2624116493760802	2.857173292853411	-4.975550476277788	10.24989857669432	10.2498985766943	-3.254152680200834	-0.02518359058412351	3.258226947437469	1.008656454845314	2.792973606717461e-07	1.009023768685886e-07	-1.841555220826195e-06	3.398492267049728e-07	1.670766160028917e-07	-6.015975656550341e-07	-7.591388295133014e-07
0.04	-0.008382657760341257	0.09496810180198687	0.9421285027603122	0.185065567917038	-0.231957178191303	-0.2579353895188969	-0.04284228284900611	0.08183960359317202	0.08183960359317208	0.171711089673263	0.1733068770778435	0.0351850114460509	-0.002657303357359512	-0.1010771327265	-0.05883083818360135	-0.02971639146819552	0.4317641802458628	0.01126528362655521	0.1155450703999567	-0.2058488344913417	0.425405909231005	0.4254059092310093	-0.136334214816461	0.002846932168518201	0.1339132915997272	0.04192704069685555	0.21140752572644	-0.1930456884413796	-0.03766601648779743	-0.3795145317484483	0.3446683708621592	-0.09720413128250256	-0.1132622470405731	-39.32534230737146	63.04876629268123	-21.79574691776495	-6.780123686804464	-19.72647989878978	-671.1149145590077	89.39930891680758	-2.529086698347581	-1.380474147319885	-0.7760664332392366	10.42320106351518	0.1795361646918103	2.495802030391038	-4.556071574106624	10.26305125745179	10.26305125745197	-3.033348881827156	0.305387057966362	3.213998440126328	0.9168809731892045	3.11212719275642e-07	1.099961301908279e-07	-2.034554706812035e-06	4.056188640620274e-07	1.90403732312472e-07	-7.348430320487244e-07	-8.745962524823403e-07
